<svg xmlns="http://www.w3.org/2000/svg" width="22.97" height="16.406" viewBox="0 0 22.97 16.406">
  <metadata><?xpacket begin="﻿" id="W5M0MpCehiHzreSzNTczkc9d"?>
<x:xmpmeta xmlns:x="adobe:ns:meta/" x:xmptk="Adobe XMP Core 5.6-c142 79.160924, 2017/07/13-01:06:39        ">
   <rdf:RDF xmlns:rdf="http://www.w3.org/1999/02/22-rdf-syntax-ns#">
      <rdf:Description rdf:about=""/>
   </rdf:RDF>
</x:xmpmeta>
                                                                                                    
                                                                                                    
                                                                                                    
                                                                                                    
                                                                                                    
                                                                                                    
                                                                                                    
                                                                                                    
                                                                                                    
                                                                                                    
                                                                                                    
                                                                                                    
                                                                                                    
                                                                                                    
                                                                                                    
                                                                                                    
                                                                                                    
                                                                                                    
                                                                                                    
                                                                                                    
                           
<?xpacket end="w"?></metadata>
<defs>
    <style>
      .cls-1 {
        fill: #7d7c7c;
        fill-rule: evenodd;
        opacity: 0.5;
      }
    </style>
  </defs>
  <path id="chat" class="cls-1" d="M1190.11,765.968c4.91,0,7.68,2.743,7.68,6.276s-2.77,6.261-7.68,6.261a12.246,12.246,0,0,1-1.74-.124,5.948,5.948,0,0,1-5.8,2.026c2.55-1.2,2.39-2.937,1.93-3.2-1.99-1.173-3.44-2.96-3.44-4.961C1181.06,768.711,1185.21,765.968,1190.11,765.968Zm-0.1,13.285a8.339,8.339,0,0,0,5,1.546,12.291,12.291,0,0,0,1.75-.247c2.28,2.886,6.02,1.475,6.02,1.475-2.55-1.2-2.61-2.524-2.16-2.789,2-1.174,3.4-2.96,3.4-4.961,0-3.021-3-5.83-6.93-6.581C1200.64,773.334,1197.98,779.605,1190.01,779.253Z" transform="translate(-1181.06 -765.969)"/>
</svg>
