<svg xmlns="http://www.w3.org/2000/svg" width="21.03" height="14" viewBox="0 0 21.03 14">
  <metadata><?xpacket begin="﻿" id="W5M0MpCehiHzreSzNTczkc9d"?>
<x:xmpmeta xmlns:x="adobe:ns:meta/" x:xmptk="Adobe XMP Core 5.6-c142 79.160924, 2017/07/13-01:06:39        ">
   <rdf:RDF xmlns:rdf="http://www.w3.org/1999/02/22-rdf-syntax-ns#">
      <rdf:Description rdf:about=""/>
   </rdf:RDF>
</x:xmpmeta>
                                                                                                    
                                                                                                    
                                                                                                    
                                                                                                    
                                                                                                    
                                                                                                    
                                                                                                    
                                                                                                    
                                                                                                    
                                                                                                    
                                                                                                    
                                                                                                    
                                                                                                    
                                                                                                    
                                                                                                    
                                                                                                    
                                                                                                    
                                                                                                    
                                                                                                    
                                                                                                    
                           
<?xpacket end="w"?></metadata>
<defs>
    <style>
      .cls-1 {
        fill: #7d7c7c;
        fill-rule: evenodd;
        opacity: 0.5;
      }
    </style>
  </defs>
  <path id="Mail" class="cls-1" d="M1183.35,806.974a1.376,1.376,0,0,0-1.36,1.493l9.02,7.492a1.911,1.911,0,0,0,2.98,0l8.96-7.469a1.429,1.429,0,0,0-1.41-1.516h-18.19Zm-1.39,2.258,4.47,3.831-2.95,6.341,3.76-5.649,2.93,2.513a3.093,3.093,0,0,0,2.25,1.267,2.719,2.719,0,0,0,2.32-1.22l2.97-2.554,3.8,5.664-2.86-6.477,4.33-3.716v10.282a1.582,1.582,0,0,1-1.51,1.454h-18.1a1.411,1.411,0,0,1-1.41-1.5V809.232Z" transform="translate(-1181.94 -806.969)"/>
</svg>
