<svg xmlns="http://www.w3.org/2000/svg" xmlns:xlink="http://www.w3.org/1999/xlink" width="52.563" height="8.156" viewBox="0 0 52.563 8.156">
  <metadata><?xpacket begin="﻿" id="W5M0MpCehiHzreSzNTczkc9d"?>
<x:xmpmeta xmlns:x="adobe:ns:meta/" x:xmptk="Adobe XMP Core 5.6-c142 79.160924, 2017/07/13-01:06:39        ">
   <rdf:RDF xmlns:rdf="http://www.w3.org/1999/02/22-rdf-syntax-ns#">
      <rdf:Description rdf:about=""/>
   </rdf:RDF>
</x:xmpmeta>
                                                                                                    
                                                                                                    
                                                                                                    
                                                                                                    
                                                                                                    
                                                                                                    
                                                                                                    
                                                                                                    
                                                                                                    
                                                                                                    
                                                                                                    
                                                                                                    
                                                                                                    
                                                                                                    
                                                                                                    
                                                                                                    
                                                                                                    
                                                                                                    
                                                                                                    
                                                                                                    
                           
<?xpacket end="w"?></metadata>
<defs>
    <style>
      .cls-1 {
        fill: #007ed1;
        fill-rule: evenodd;
        filter: url(#filter);
      }
    </style>
    <filter id="filter" x="279" y="59.875" width="52.563" height="8.156" filterUnits="userSpaceOnUse">
      <feFlood result="flood" flood-color="#32a2e3"/>
      <feComposite result="composite" operator="in" in2="SourceGraphic"/>
      <feBlend result="blend" in2="SourceGraphic"/>
    </filter>
  </defs>
  <path id="stars" class="cls-1" d="M283.287,59.875l1.412,2.562,2.874,0.552-2,2.136,0.363,2.9-2.649-1.242-2.649,1.242,0.363-2.9-2-2.136,2.874-.552,1.413-2.562m11,0,1.413,2.562,2.873,0.552-2,2.136,0.363,2.9-2.649-1.242-2.649,1.242,0.363-2.9-2-2.136,2.874-.552,1.413-2.562m11,0,1.412,2.562,2.874,0.552-2,2.136,0.363,2.9-2.649-1.242-2.649,1.242,0.363-2.9-2-2.136,2.873-.552,1.413-2.562m11,0,1.412,2.562,2.874,0.552-2,2.136,0.363,2.9-2.649-1.242-2.649,1.242,0.363-2.9-2-2.136,2.874-.552,1.413-2.562m11,0,1.412,2.562,2.874,0.552-2,2.136,0.363,2.9-2.649-1.242-2.649,1.242,0.363-2.9-2-2.136,2.873-.552,1.413-2.562" transform="translate(-279 -59.875)"/>
</svg>
