<svg xmlns="http://www.w3.org/2000/svg" width="22.97" height="16.406"><path d="M9.05-.001c4.91 0 7.68 2.743 7.68 6.276s-2.77 6.261-7.68 6.261a12.246 12.246 0 0 1-1.74-.124 5.948 5.948 0 0 1-5.8 2.026c2.55-1.2 2.39-2.937 1.93-3.2C1.45 10.065 0 8.278 0 6.277 0 2.742 4.15-.001 9.05-.001zm-.1 13.285a8.339 8.339 0 0 0 5 1.546 12.291 12.291 0 0 0 1.75-.247c2.28 2.886 6.02 1.475 6.02 1.475-2.55-1.2-2.61-2.524-2.16-2.789 2-1.174 3.4-2.96 3.4-4.961 0-3.021-3-5.83-6.93-6.581 3.55 5.638.89 11.909-7.08 11.557z" fill="#7d7c7c" fill-rule="evenodd" opacity=".5"/></svg>