<svg xmlns="http://www.w3.org/2000/svg" width="52.563" height="8.156"><defs><filter id="a" x="279" y="59.875" width="52.563" height="8.156" filterUnits="userSpaceOnUse"><feFlood result="flood" flood-color="#32a2e3"/><feComposite result="composite" operator="in" in2="SourceGraphic"/><feBlend result="blend" in2="SourceGraphic"/></filter></defs><path d="M283.287 59.875l1.412 2.562 2.874.552-2 2.136.363 2.9-2.649-1.242-2.649 1.242.363-2.9-2-2.136 2.874-.552 1.413-2.562m11 0l1.413 2.562 2.873.552-2 2.136.363 2.9-2.649-1.242-2.649 1.242.363-2.9-2-2.136 2.874-.552 1.413-2.562m11 0l1.412 2.562 2.874.552-2 2.136.363 2.9-2.649-1.242-2.649 1.242.363-2.9-2-2.136 2.873-.552 1.413-2.562m11 0l1.412 2.562 2.874.552-2 2.136.363 2.9-2.649-1.242-2.649 1.242.363-2.9-2-2.136 2.874-.552 1.413-2.562m11 0l1.412 2.562 2.874.552-2 2.136.363 2.9-2.649-1.242-2.649 1.242.363-2.9-2-2.136 2.873-.552 1.413-2.562" transform="translate(-279 -59.875)" fill="#007ed1" fill-rule="evenodd" filter="url(#a)"/></svg>